<svg xmlns="http://www.w3.org/2000/svg" version="1.1" width="600px" height="600px" viewBox="0 0 200 200" style="overflow:hidden!important;"><g id="svga-group-wrapper"><g id="svga-group-backs-single"></g><g id="svga-group-humanwrap-move" transform="matrix(1,0,0,1,0,0)"><g id="svga-group-humanwrap"><g id="svga-group-hair-back-move" transform="matrix(1,1.3877787807814457e-16,-1.3877787807814457e-16,1,2.842170943040401e-14,0)"><g id="svga-group-hair-back"></g></g><g id="svga-group-humanbody-back"><path id="SvgjsPath5790" d="m170 180.3-27.3-6.9-18-9.9-1.5-28.2H76.8l-1.5 28.2-18 9.9-27.3 6.9-9.1 19.7-3 20h164.2l-3-20z" fill="#9a7b6b" stroke-width="none" opacity="1" stroke="none"></path><path id="SvgjsPath5791" d="m76.8 135.3-1.5 28.2-18 9.9-27.3 6.9-9.1 19.7-3 20h14.6v-20l2.7-17.7 23.8-6.4 24.7-8.3 3.5-32.3z" fill="#7b523d" stroke-width="none" opacity="1" stroke="none"></path></g><g id="svga-group-chinshadow-single"><path id="SvgjsPath6035" d="m121.8 145.8 1.8-2.6-.4-7.9H76.8l-.7 14.1L89 162.9l8.2-.9 8.2.9z" fill="#6c412b" stroke-width="none" opacity="1" stroke="none"></path></g><g id="svga-group-humanbody-front"><path id="SvgjsPath5792" d="m92.8 168.3 2 7.9 6.9 4.6s-8.5-3-8.7-3.6c-.2-.6-.2-8.9-.2-8.9z" fill="#7b523d" stroke-width="none" opacity="1" stroke="none"></path></g><g id="svga-group-clothes-single"><path id="SvgjsPath10226" d="m184.7 220-8.1-35.4-4.8-3.5-1.5-2-17.6-6.8-8.6-15.9-3.8-1.6-7.3-9-9.4-3.1.6 11-1.3 10.1-8.9 9.1-8.1 9.8-2.5 5-1.7-3.2-4.5-3.8-11.2-7.8-8.9-9.1-1.3-10.1.6-11-9.4 3.1-7.3 9-3.8 1.6-8.6 15.9-17.6 6.8-1.5 2-4.8 3.5-8.1 35.4z" fill="#fdcc49" stroke-width="none" opacity="1" stroke="none"></path><path id="SvgjsPath10227" d="m134.2 188.8-15 3.8-9.9.2-.1-1.7 1.3-.1-.7-2.3-3.2.3-.1 2.3.8-.1v1.6h-2.1l2.1.2.1 5.9-.7 7.4 1.6 7.5.3 4.8 2.6-1-.3-5.1-2-6.6.9-7.3-.3-5.6 9.7.7 15.8-4.1 16-12.2 2-5.3-3.2 4.1-15.6 12.6zm-32.2 4.3-2.5-.2.2-1.8.6.1 1.2-2.2-3.3-2.3-2 1.9 1.2 2.3h.1v1.9l-1.5-.1-26-6.9-15.8-11 1.9-11L59 160l11 18.7 17.7 7.2-14.8-7.9-8.1-12.4 2.2-19.8-7.2 8.9-3.8 1.7-8.6 15.8-17.7 6.8-1.5 2-4.8 3.5-8.1 35.5h10.2l1.3-14.3 3.3-18.1 2.9 2.6 2.6 13.9 1.2 15.9v-16.2l-2.6-15.3-2.2-4.3 1.4-1.7 16.7-6L69 187.3l26.8 6.2 1.5-.1-.1 3.4 1.4 9.9s-3 9.8-2.8 9.9c.3.2 1.7 2.8 1.8 2.6.1-.3 3.5-12.5 3.5-12.5l-1.9-10.4.3-3.1 2.5-.1zm-26.2-39.4.6-10.8-4 5.1-.7 8.4 5.4 7.5-1.3-10.2zm49.1 11 6.7-6.9-.7-10.8-7.3-4.3.6 11-1.3 10.2-8.9 9.1-8.1 9.8-2.5 5 6.5-8.5 15-14.6zm-18.1 22.4 22.9-5 11.2-13.4 3.2-12.3-3.8-1.7-2.4 13-8.6 13.1-22.5 6.3zm56.5 9.7.8 21.6.5-20.4 4.5-13.1-5.8 11.9z" fill="#eeb92d" stroke-width="none" opacity="1" stroke="none"></path><path id="SvgjsPath10228" d="m137.4 165.7 1.2-10.5-6-6.2 1.4 10.3-10.3 16.1-14 8.7 18.6-4.5 9.1-13.9zm13.6 6.2-6.2-10.1c.2.6-2.1 9.5-2.1 9.5l-10.3 12.4-15.5 7.2 16.7-3.1 15.7-12.6 1.7-3.3zm24.8 14-3.7-1.9-2.3 5.6 3.9 9.3 3.9 19.2 4.1.2-5.9-32.4zm-7.7-6.5-14.4-4.8-2.5 5-8.3 5.6 19.4.6 4.5 1.2 3.7-5.6-2.4-2zM85 175.6l-10.1-10.3-3.7-7.4-1.4.6 3.1 11.6 11.6 9.1 14.4 5.6 3.1 3.9-3.3-5.6-13.7-7.5zm43.1-12.5-16.7 16.1-6.6 8.5 13.4-11.6 9.9-13z" fill="#ffd563" stroke-width="none" opacity="1" stroke="none"></path></g><g id="svga-group-head" transform="matrix(1,1.3877787807814457e-16,-1.3877787807814457e-16,1,2.842170943040401e-14,0)"><g id="svga-group-ears-left-move" transform="matrix(1,0,0,1,0,0)"><g id="svga-group-ears-left"><path id="SvgjsPath6865" d="m64.4 98.3-5.3-9.7-7-.9-2 7.2.4 8.9 7 11.4 6.1 4.5 3.8-11.6z" fill="#9a7b6b" stroke-width="none" opacity="1" stroke="none"></path><path id="SvgjsPath6866" d="m58.4 101.2-4.1-9.8-1.9 5.1.4 5 2.6 6.1-1.6-9.4 1.5-.7 1.3 10.8 2 2.1z" fill="#7b523d" stroke-width="none" opacity="1" stroke="none"></path><path id="SvgjsPath6867" d="m60.7 101-3.2-11.6-5.4-1.7 7 .9 5.3 9.7 3 9.8-3.8 11.6-6.1-4.5 3.6.7z" fill="#8b6652" stroke-width="none" opacity="1" stroke="none"></path></g></g><g id="svga-group-ears-right-move" transform="matrix(1,0,0,1,0,0)"><g id="svga-group-ears-right"><path id="SvgjsPath6868" d="m135.6 98.3 5.3-9.7 7-.9 2 7.2-.4 8.9-7 11.4-6.1 4.5-3.8-11.6z" fill="#9a7b6b" stroke-width="none" opacity="1" stroke="none"></path><path id="SvgjsPath6869" d="m141.6 101.2 4.1-9.8 1.9 5.1-.4 5-2.6 6.1 1.6-9.4-1.5-.7-1.3 10.8-2 2.1z" fill="#7b523d" stroke-width="none" opacity="1" stroke="none"></path><path id="SvgjsPath6870" d="m139.3 101 3.2-11.6 5.4-1.7-7 .9-5.3 9.7-3 9.8 3.8 11.6 6.1-4.5-3.6.7z" fill="#8b6652" stroke-width="none" opacity="1" stroke="none"></path></g></g><g id="svga-group-faceshape-wrap"><g id="svga-group-faceshape-single"><path id="SvgjsPath6023" d="M138.1 59.9c-6.9-11.6-19.7-19.5-19.7-19.5-7.2-1.5-18.4-2.3-18.4-2.3s-11.1.8-18.4 2.3c0 0-12.8 7.9-19.7 19.5 0 0-5.1 14.5-5.3 24.8l4.4 34.9L75.5 140 92 157.2l8.2-.9 8.2.9 16.5-17.2 14.5-20.4 4.4-34.9c-.6-10.3-5.7-24.8-5.7-24.8z" fill="#9a7b6b" stroke-width="none" opacity="1" stroke="none"></path><path id="SvgjsPath6024" d="m99.8 155.1-7.5.2-13-18-14-19.2L60.6 84l5.2-23 17-18.2 17-2.5 18.6.1c-7.2-1.5-18.4-2.3-18.4-2.3s-11.1.8-18.4 2.3c0 0-12.8 7.9-19.7 19.5 0 0-5.1 14.5-5.3 24.8l4.4 34.9L75.5 140 92 157.2l8.2-.9 8.2.9 16.5-17.2-16.9 15.8-8.2-.7z" fill="#7b523d" stroke-width="none" opacity="1" stroke="none"></path><path id="SvgjsPath6025" d="m98.6 152.1-.3-2.8 2.5-2.6-1.4 3.2z" fill="#8b6652" stroke-width="none" opacity="1" stroke="none"></path></g></g><g id="svga-group-mouth-single-move" transform="matrix(1,0,0,1,0,0)"><g id="svga-group-mouth-single"><path id="SvgjsPath6673" d="m91.05 134.5 3.1 2.2 5.6-.2 6.6.6 2.7-2-2.9 1-6.5-.5-5.5.2z" fill="#7b523d" stroke-width="none" opacity="1" transform="translate(0 2)" stroke="none"></path><path id="SvgjsPath6674" d="m89.17 128.58-1.77 2.59 7.88-2.14 2.49 1.51 3.83.27 2.37-1.45 9.7 2.06-1.77-1.92-8.85-5.39-3.26.99-2.89-1.13z" fill="#784c51" stroke-width="none" opacity="1" transform="translate(0 2)" stroke="none"></path><path id="SvgjsPath6675" d="m85.3 129.9 2.3 1.9 7.5-2.4 2.8 1.6 3.7.1 2.6-1.5 9.5 2.3 1.87-1.35-2.07.45-9.6-2.7-2.5 1.9-3.5-.1-2.7-2-7.8 2.7z" fill="#69383d" stroke-width="none" opacity="1" transform="translate(0 2)" stroke="none"></path></g></g><g id="svga-group-eyes-left-move" transform="matrix(1,0,0,1,0,0)"><g id="svga-group-eyes-left"><g id="svga-group-eyesback-left"><path id="SvgjsPath7397" d="M92.5 96.6 88 92.7S75 92 74.7 92s-6.3 4.2-6.1 4.4c.2.2 6.5 3 9 3.5 0 0 3.8 0 7.7-.8 2.8-.8 5.7-1.9 7.2-2.5z" fill="#ffffff" stroke-width="none" opacity="1"></path></g><g id="svga-group-eyesiriswrapper-left" transform="matrix(1,0,0,1,0,0)"><g id="svga-group-eyesiriscontrol-left" transform="matrix(1,0,0,1,0,0)"><g id="svga-group-eyesiris-left"><path id="SvgjsPath7850" d="m76.76 97.53-.81-3.95 2.22-3.37 3.94-.81 3.37 2.22.81 3.95-2.22 3.36-3.95.81z" fill="#644822" stroke-width="none" opacity="1" stroke="none"></path><path id="SvgjsPath7851" d="m80 97.28-1.59-1.59v-2.24L80 91.87h2.24l1.58 1.58v2.24l-1.58 1.59z" fill="#000000" stroke-width="none" opacity="1"></path><path id="SvgjsPath7852" d="m85.71 91.46-3.55-2.34-4.16.85-2.34 3.55.85 4.16 3.55 2.34 4.16-.85 2.34-3.55-.85-4.16zm-4.66 5.99.22 1.79-.58.12v-1.91h.36zm.17 0h.39l.46 1.62-.63.13-.22-1.75zm.57 0h.42l.81 1.43-.78.16-.45-1.59zm.38-.35h-2.1l-1.48-1.48v-2.1l1.48-1.48h2.1l1.48 1.48v2.1l-1.48 1.48zm-4 1.04 1.11-1.34.26.26c-.26.52-.6 1.2-.75 1.49l-.62-.41zm.99-1.46-1.14 1.36-.54-.35 1.33-1.35.35.34zm.51.51.24.24-.28 1.67-.7-.46c.11-.2.32-.61.74-1.45zm-2.89-.88-.18-.86 1.64-.23v.41l-1.46.68zm1.46-1.78-1.85-.11-.12-.57 1.97.23v.45zm0 .18v.34l-1.67.23-.14-.68 1.81.11zm.11-1.44-1.63-.38.71-1.07 1.41.97-.49.48zm-.27-2.45c.17.18.57.53 1.45 1.28l-.57.57-1.44-.99.56-.86zm2.73.87c-.06-.38-.2-1.24-.27-1.7l.74-.15v1.85h-.47zm-.18 0h-.36l-.85-1.47.95-.2c.09.6.21 1.33.26 1.67zM84 93.77l1.58-.37.14.7-1.72.12v-.45zm0-.18v-.21l-.27-.27 1.55-1.2.27 1.33-1.55.35zm-.4-.61-.37-.37 1.29-1.31.67.44-1.59 1.24zm-.49-.49-.49-.49.73-1.47 1.02.67-1.26 1.29zm-.62-.62-.17-.17h-.27l.23-1.87.93.61-.72 1.43zm.7 4.7 1.25 1.32-.39.6-1.22-1.56.36-.36zm.13-.12.24-.24 1.49.78-.5.76-1.23-1.3zm.37-.37.31-.32v-.11c.34.09 1.04.29 1.62.46l-.47.72-1.46-.75zm.31-1.69 1.76-.11.13.64-1.89-.08v-.45zm-1.89-4.68-.25 1.98h-.42V89.8l.61-.13.06.04zm-2.87.55.83 1.43h-.14l-.28.28c-.54-.47-1.25-1.08-1.47-1.3l.15-.22.91-.19zm-2.63 2.78 1.63.38v.48l-2-.23-.01-.04.38-.59zm.2 3.45 1.47-.68.41.41-1.35 1.38-.34-.23-.19-.88zm2.98 2.72.29-1.76h.45v1.94l-.35.07-.39-.25zm3.41-.37-.82-1.46.33-.33 1.24 1.59-.04.06-.71.14zm2.51-2.88c-.58-.17-1.35-.39-1.72-.49v-.46l1.93.07.09.43-.3.45z" fill="#452c0a" stroke-width="none" opacity="1" stroke="none"></path><path id="SvgjsPath7853" d="m80.63 91.91-.97-.29-.72.7.23.97.97.29.72-.7z" fill="#ffffff" stroke-width="none" opacity="1"></path><path id="SvgjsPath7854" d="m82.79 96.11-.59-.34-.59.34v.68l.59.34.59-.34z" fill="#ffffff" stroke-width="none" opacity="1"></path></g></g></g><g id="svga-group-eyesfront-left"><path id="SvgjsPath7405" d="M67.1 89.3v11.9l7.9 8.4h11.2l7.9-8.4V89.3l-7.9-8.4H75l-7.9 8.4zm1.5 7c-.2-.2 5.9-4.4 6.1-4.4s13.3.8 13.3.8l4.5 3.9c-1.5.7-4.4 1.8-7.2 2.4-3.9.9-7.7.8-7.7.8-2.5-.4-8.7-3.3-9-3.5z" fill="#9a7b6b" stroke-width="none" opacity="1" stroke="none"></path><path id="SvgjsPath7406" d="m93 96.8-1.2-.5-4.1-3.4-12.9-.6-4.5 3.1-1.1 1 6.3 2.8-2.9-.7-4.7-2.1 1.8-1.8 5-3 13.3.9z" fill="#8d7474" stroke-width="none" opacity="1" stroke="none"></path><path id="SvgjsPath7407" d="m91.5 94.7-3.8-4.5-9.7-.1-2.9 1.3 3.4-.9 9.1.2z" fill="#8b6652" stroke-width="none" opacity="1" stroke="none"></path></g></g></g><g id="svga-group-eyes-right-move" transform="matrix(1,0,0,1,0,0)"><g id="svga-group-eyes-right"><g id="svga-group-eyesback-right"><path id="SvgjsPath7398" d="m107.5 96.6 4.5-3.9s13-.7 13.3-.7 6.3 4.2 6.1 4.4c-.2.2-6.5 3-9 3.5 0 0-3.8 0-7.7-.8-2.8-.8-5.7-1.9-7.2-2.5z" fill="#ffffff" stroke-width="none" opacity="1"></path></g><g id="svga-group-eyesiriswrapper-right" transform="matrix(1,0,0,1,0,0)"><g id="svga-group-eyesiriscontrol-right" transform="matrix(1,0,0,1,0,0)"><g id="svga-group-eyesiris-right"><path id="SvgjsPath7855" d="m114.52 97.53-.81-3.95 2.22-3.37 3.95-.81 3.36 2.22.81 3.95-2.22 3.36-3.94.81z" fill="#644822" stroke-width="none" opacity="1" stroke="none"></path><path id="SvgjsPath7856" d="m117.76 97.28-1.58-1.59v-2.24l1.58-1.58H120l1.59 1.58v2.24L120 97.28z" fill="#000000" stroke-width="none" opacity="1"></path><path id="SvgjsPath7857" d="m123.47 91.46-3.55-2.34-4.16.85-2.34 3.55.85 4.16 3.55 2.34 4.16-.85 2.34-3.55-.85-4.16zm-4.66 5.99.22 1.79-.58.12v-1.91h.36zm.18 0h.39l.46 1.62-.63.13-.22-1.75zm.57 0h.42l.81 1.43-.78.16-.45-1.59zm.37-.35h-2.1l-1.48-1.48v-2.1l1.48-1.48h2.1l1.48 1.48v2.1l-1.48 1.48zm-4 1.04 1.11-1.34.26.26c-.26.52-.6 1.2-.75 1.49l-.62-.41zm.99-1.46-1.14 1.36-.54-.35 1.33-1.35.35.34zm.51.51.24.24-.28 1.67-.7-.46c.12-.2.32-.61.74-1.45zm-2.89-.88-.18-.86 1.64-.23v.41l-1.46.68zm1.46-1.78-1.85-.11-.12-.57 1.97.23v.45zm0 .18v.34l-1.67.23-.14-.68 1.81.11zm.11-1.44-1.63-.38.71-1.07 1.41.97-.49.48zm-.27-2.45c.17.18.57.53 1.45 1.28l-.57.57-1.44-.99.56-.86zm2.73.87c-.06-.38-.2-1.24-.27-1.7l.74-.15v1.85h-.47zm-.18 0h-.36l-.85-1.47.95-.2c.09.6.21 1.33.26 1.67zm3.37 2.08 1.58-.37.14.7-1.72.11v-.44zm0-.18v-.21l-.27-.27 1.55-1.2.27 1.33-1.55.35zm-.4-.61-.37-.37 1.29-1.31.67.44-1.59 1.24zm-.49-.49-.49-.49.73-1.47 1.02.67-1.26 1.29zm-.62-.62-.17-.17h-.27l.23-1.87.93.61-.72 1.43zm.71 4.7 1.25 1.32-.39.6-1.22-1.56.36-.36zm.12-.12.24-.24 1.49.78-.5.76-1.23-1.3zm.37-.37.31-.31v-.11c.34.09 1.04.29 1.62.46l-.47.72-1.46-.76zm.31-1.69 1.76-.11.13.64-1.89-.07v-.46zm-1.88-4.68-.25 1.98h-.42V89.8l.61-.13.06.04zm-2.88.55.83 1.43h-.14l-.28.28c-.54-.47-1.25-1.08-1.47-1.3l.15-.22.91-.19zm-2.62 2.78 1.63.38v.48l-2-.23-.01-.04.38-.59zm.19 3.45 1.47-.68.41.41-1.35 1.38-.34-.23-.19-.88zm2.98 2.72.29-1.76h.45v1.94l-.35.07-.39-.25zm3.41-.37-.82-1.46.33-.33 1.24 1.59-.04.06-.71.14zm2.52-2.88c-.58-.17-1.35-.39-1.72-.49v-.46l1.93.07.09.43-.3.45z" fill="#452c0a" stroke-width="none" opacity="1" stroke="none"></path><path id="SvgjsPath7858" d="m118.39 91.91-.96-.29-.73.7.24.97.96.29.73-.7z" fill="#ffffff" stroke-width="none" opacity="1"></path><path id="SvgjsPath7859" d="m120.55 96.11-.59-.34-.59.34v.68l.59.34.59-.34z" fill="#ffffff" stroke-width="none" opacity="1"></path></g></g></g><g id="svga-group-eyesfront-right"><path id="SvgjsPath7408" d="M125 80.8h-11.2l-7.9 8.4v11.9l7.9 8.4H125l7.9-8.4V89.3l-7.9-8.5zm-2.6 19s-3.8 0-7.7-.8c-2.8-.6-5.7-1.7-7.2-2.4l4.5-3.9s13-.7 13.3-.7 6.3 4.2 6.1 4.4-6.5 3-9 3.4z" fill="#9a7b6b" stroke-width="none" opacity="1" stroke="none"></path><path id="SvgjsPath7411" d="m107 96.8 1.2-.5 4.1-3.4 12.9-.6 4.5 3.1 1.1 1-6.3 2.8 2.9-.7 4.7-2.1-1.8-1.8-5-3-13.3.9z" fill="#8d7474" stroke-width="none" opacity="1" stroke="none"></path><path id="SvgjsPath7412" d="m108.5 94.7 3.8-4.5 9.7-.1 2.9 1.3-3.4-.9-9.1.2z" fill="#8b6652" stroke-width="none" opacity="1" stroke="none"></path></g></g></g><g id="svga-group-facehighlight-single"></g><g id="svga-group-eyebrows-left-move" transform="matrix(1,0,0,1,0,0)"><g id="svga-group-eyebrows-left-rotate" transform="matrix(0.9825664732332882,-0.1859116071629147,0.1859116071629147,0.9825664732332882,-14.068847352814771,15.807240637206661)"><g id="svga-group-eyebrows-left"><path id="SvgjsPath10831" d="M74.2 77.6 71 79l-5 9 8.5-4.6 17.3 3.7.9-6z" fill="#2a232b" stroke-width="none" opacity="1"></path><path id="SvgjsPath10832" d="m87.9 84-1.2-4-1.7-.4 2.9 4.4zM73 78.2l5.6 4.6-4.4-5.2-1.2.6zm6.9.5 3.8 5-1.9-4.6-1.9-.4zm-11.7 5.4 2.7-1.5-2.1.5-.6 1zm14.7-4.8 1.7 1.9-.5-1.7-1.2-.2zm-12.4.7 3.8.8L71 79l-.5 1zm16.6.1 3.5 5.2-1.4-4.7-2.1-.5z" fill="#3a353a" stroke-width="none" opacity="1"></path></g></g></g><g id="svga-group-eyebrows-right-move" transform="matrix(1,0,0,1,0,0)"><g id="svga-group-eyebrows-right-rotate" transform="matrix(0.9825664725843342,0.1859116105927185,-0.1859116105927185,0.9825664725843342,17.555553136300375,-21.37508186444022)"><g id="svga-group-eyebrows-right"><path id="SvgjsPath10833" d="m107.3 81.1.9 6 17.3-3.7L134 88l-5-9-3.2-1.4z" fill="#2a232b" stroke-width="none" opacity="1"></path><path id="SvgjsPath10834" d="m115 79.6-1.7.3-1.2 4 2.9-4.3zm10.8-2-4.4 5.2 5.6-4.6-1.2-.6zm-7.6 1.5-1.9 4.6 3.8-5-1.9.4zm12.9 4-2.1-.5 2.7 1.5-.6-1zm-15.2-3.6-.5 1.7 1.7-1.9-1.2.2zM129 79l-3.2 1.8 3.8-.8-.6-1zm-18.2 1.5-1.4 4.7 3.5-5.2-2.1.5z" fill="#3a353a" stroke-width="none" opacity="1"></path></g></g></g><g id="svga-group-beardwrap"><g id="svga-group-beard-single-move" transform="matrix(1,0,0,1,0,0)"><g id="svga-group-beard-single"><path id="SvgjsPath11200" d="m83.1 148.8 8 11.7 9.1 1.6 9.3-2.3 8.1-11.6-1.6-1.9-8-1.3H91.9l-6.1 1.6z" fill="#2a232b" stroke-width="none" opacity="1"></path><path id="SvgjsPath11201" d="M116 146.3h-.2l-7.4 11.8-.7.2 2.5-10.5-4.2 11-2.3.7-.7-4.4-.4 4.7-1.6.5-1.9-8.2.2 8.1-3.1-1.4-3.6-11.3 1.6 10.4-1.5-.6-5.2-11.3-1.7.5-2.7 2.2 8 11.7 9 1.6 9.3-2.4 8.1-11.6-1.5-1.7zM96.7 145h-2.2c.7 2.6 3 11.1 3.1 11.7-.2-.6-.7-8.9-.9-11.7zm6.1 0h-1.7c.1 2.9.3 10.5.3 10.1 0-.5 1-7.5 1.4-10.1zm5.2 0h-2.2l-.6 10.3 3.3-10.2-.5-.1z" fill="#1b141c" stroke-width="none" opacity="1"></path></g></g></g><g id="svga-group-mustache-single-move" transform="matrix(1,0,0,1,0,0)"><g id="svga-group-mustache-single"><path id="SvgjsPath11280" d="m98.1 118.8 1.3 1.6-.7 4.4-5.4.9.2-1.4-.9 1.6-4.9.9.2-1.3-1.2 1.5v-.9l-.9 1.1-3.1-.3.6-1.5-1 1.2-.2-1.8s2.9-3.3 3.1-3.4 7.6-2.6 7.6-2.6h5.3zm4.3 0-1.3 1.6.7 4.4 5.4.9-.2-1.4.9 1.6 4.9.9-.2-1.3 1.2 1.5v-.9l.9 1.1 3.1-.3-.6-1.5 1 1.2.2-1.8s-2.9-3.3-3.1-3.4-7.6-2.6-7.6-2.6h-5.3z" fill="#2a232b" stroke-width="none" opacity="1"></path><path id="SvgjsPath11281" d="M95.8 125c0 .2-.1-2-.1-2s-.5 1.3-.9 2.5l3.9-.6.7-4.4-1.3-1.6-5.3-.1s-7.4 2.5-7.6 2.6-3.1 3.4-3.1 3.4l.2 1.8 1-1.2-.6 1.5 1.8.2.3-2.2 2.1-2.5-1 2.4-.5 2.2.8-1.5 3.1-4.4-.5 2.2-.5 3 .9-3 1.4-3.3 3 .5-1.7 5 2.5-4.6-.7 3.6 1.4-3.6 3.7.7c-.3 1.2-.9 3-1 3.2-.1.3-1.2.3-1.2.3l.4-3.1s-1.2 2.8-1.2 3zm22.6-.3-.5.6-1.4-1.8.3 1.4-2.3-2.8 2.5 4.4-1.8-.1-1.8-2.1.1 1.2-2.7-4.7 1.4 5.1-.9-1.7.1 1.8-2.9-6.2 1.5 6.1-1.2-.9.4 1.2 3.6.6-.2-1.3 1.2 1.5v-.9l.9 1.1 3.1-.3-.6-1.5 1 1.2.2-1.9zm-10.7-6-5.3.1-1.3 1.6.7 4.4 2.7.4-1.1-1.7.3 1.4-.9-.5-.9-2.5 1-1.4 1.8 4.1-.3-2.6 1.1 2.9-1.2-5.2.8-.2 1.1 4.2V120l1.8 4.5-.9-4.5s.5-.6 1-1.1c-.1-.1-.4-.2-.4-.2z" fill="#221b23" stroke-width="none" opacity="1"></path></g></g><g id="svga-group-nose-single-move" transform="matrix(1,0,0,1,0,0)"><g id="svga-group-nose-single"><path id="SvgjsPath6365" d="M95.61 108.49H93.8l-1.54 8.24 3.42.42 3.28 5.52 2.94.07 3.49-5.73 3.28-.42-1.67-8.03-1.89-.14-1.12-11.46-3.49-4.12-3.77 4.54z" fill="#9a7b6b" stroke-width="none" opacity="1" transform="translate(0 1)" stroke="none"></path><path id="SvgjsPath6366" d="m107.24 108.16-1.71-.1-2.47-20.99 1.9 24.11.29-1.85 1.23-.49 1.52 7.32-2.28.19-.19-1.17.76-.78h-1.14l-3.13 7.42h-3.24l-3.13-7.42h-1.14l.76.78-.19 1.17-2.28-.19 1.52-7.32 1.23.49.29 1.85 1.9-24.11-2.47 20.99-1.71.1-2 9.07 3.33.3 3.99 5.56h3.04l3.99-5.56 3.33-.3z" fill="#7b523d" stroke-width="none" opacity="1" transform="translate(0 1)" stroke="none"></path><path id="SvgjsPath6367" d="M101.2 118.96s2.39-7.16 2.25-7.58c-.14-.42-2.11-20.79-2.11-20.79l-.56 19.8.42 8.57z" fill="#a28678" stroke-width="none" opacity="1" transform="translate(0 1)" stroke="none"></path></g></g><g id="svga-group-hair-front"><path id="SvgjsPath9572" d="M143.01 63.98c-2.54-5.83-19.15-23.84-19.15-23.84L100 36.33l-23.86 3.8s-16.61 18-19.15 23.84l-.93 24.3 4.58 4.03h2.56l.73-24.9 17.21-16.84 7.32 8.24L100 60.55l11.54-1.75 7.32-8.24 17.21 16.84.73 24.9h2.56l4.58-4.03-.93-24.29z" fill="#1b141c" stroke-width="none" opacity="1" stroke="none"></path><path id="SvgjsPath9573" d="M123.86 40.14 100 36.33l-9.09 1.45-11.22 4.57s8.72 13.88 9.72 13.88c.99 0 12.49 1.78 13.48 1.59.99-.2 8.33-.99 8.33-.99l8.33-7.53 18.04 18.24.92 24.77h.86l4.58-4.03-.93-24.3c-2.55-5.84-19.16-23.84-19.16-23.84z" fill="#2a232b" stroke-width="none" opacity="1" stroke="none"></path></g><g id="svga-group-glasses-single-move" transform="matrix(1,0,0,1,0,0)"><g id="svga-group-glasses-single"><path id="SvgjsPath11104" d="M72.3 101.7 85 91.9l.1.2-12.6 9.8-.2-.2zm6.3-1-.2-.2 9.8-7.6.2.2-9.8 7.6zm-7.8 0-.2-.2 9.9-7.6.1.2-9.8 7.6zm43 1 12.6-9.8.1.2-12.6 9.8-.1-.2zm6.3-1-.2-.2 9.8-7.6.2.2-9.8 7.6zm-7.8 0-.2-.2 9.8-7.6.2.2-9.8 7.6z" fill="#ffffff" stroke-width="none" opacity="0.5"></path><path id="SvgjsPath11105" d="M91.3 102.5H68l-1.1-1.2v-8.6l1.1-1.1h24.3l1.2 1.1v7.6l-2.2 2.2zm18 0h23.2l1.1-1.1v-8.7l-1.1-1.1h-24.3l-1.1 1.1v7.6l2.2 2.2z" fill="#ffffff" stroke-width="none" opacity="0.37"></path><path id="SvgjsPath11106" d="M94 94.9c.4 0 .8 1 .8 2.3s-.4 2.3-.8 2.3-.8-1-.8-2.3.4-2.3.8-2.3zm12.5 0c.4 0 .8 1 .8 2.3s-.4 2.3-.8 2.3-.8-1-.8-2.3.4-2.3.8-2.3z" fill="#939393" stroke-width="none" opacity="1"></path><path id="SvgjsPath11107" d="m93.5 94.1 6.8-.6 6.8.6v1.3l-6.8-.6-6.8.6z" fill="#070201" stroke-width="none" opacity="1"></path><path id="SvgjsPath11108" d="M92.3 91.2H65.2v1.9h1.3v8.3l1.5 1.5h23.3l2.6-2.6v-7.6l-1.6-1.5zm.8 9.1-1.8 1.8H68l-.7-.7v-8.7l.7-.7h24.3l.7.7.1 7.6zm42.2-9.1h-27.2l-1.5 1.5v7.6l2.6 2.6h23.3l1.5-1.5v-8.3h1.3v-1.9zm-2.1 10.1-.7.7h-23.3l-1.8-1.8v-7.6l.7-.7h24.3l.7.7.1 8.7z" fill="#26120b" stroke-width="none" opacity="1"></path></g></g></g></g></g><rect id="svga-credit-rect" width="200" height="15" x="0" y="185" fill="#ecf0f1" opacity="0.5" style="display: none;"></rect><text id="svga-credit-text" font-family="Avenir Next, Roboto, Helvetica, Arial, sans-serif" font-size="10px" text-anchor="start" font-weight="400" size="10px" anchor="start" weight="400" fill="#333333" x="33.41004180908203" y="182.73097729682922" style="display: none;"><tspan id="SvgjsTspan5654" dy="13" x="33.41004180908203">Created on AvatarMaker.com</tspan></text></g><defs id="SvgjsDefs5601"><linearGradient id="SvgjsLinearGradient8902" x1="80.8164" y1="86.5224" x2="80.8164" y2="109.8824" gradientUnits="userSpaceOnUse" class="svga-on-canvas-glasses-gradient-single-0-null"><stop id="SvgjsStop8903" stop-opacity="1" stop-color="#000000" offset="0" ></stop><stop id="SvgjsStop8904" stop-opacity="0" stop-color="#000000" offset="1" ></stop></linearGradient><linearGradient id="SvgjsLinearGradient8906" x1="-21.1836" y1="86.5224" x2="-21.1836" y2="109.8824" gradientTransform="matrix(-1 0 0 1 98 0)" gradientUnits="userSpaceOnUse" class="svga-on-canvas-glasses-gradient-single-1-null"><stop id="SvgjsStop8907" stop-opacity="1" stop-color="#000000" offset="0" ></stop><stop id="SvgjsStop8908" stop-opacity="0" stop-color="#000000" offset="1" ></stop></linearGradient><linearGradient id="SvgjsLinearGradient10931" x1="78.9874" y1="84.3909" x2="78.9874" y2="113.9954" gradientUnits="userSpaceOnUse" class="svga-on-canvas-glasses-gradient-single-0-null"><stop id="SvgjsStop10932" stop-opacity="1" stop-color="#ff73b2" offset="0.004166667" ></stop><stop id="SvgjsStop10933" stop-opacity="0.8296" stop-color="#ff76aa" offset="0.1739" ></stop><stop id="SvgjsStop10934" stop-opacity="0.5716" stop-color="#ff7d96" offset="0.4308" ></stop><stop id="SvgjsStop10935" stop-opacity="0.2598" stop-color="#ff8874" offset="0.7413" ></stop><stop id="SvgjsStop10936" stop-opacity="0" stop-color="#ff9452" offset="1" ></stop></linearGradient><linearGradient id="SvgjsLinearGradient10938" x1="-23.0126" y1="84.3909" x2="-23.0126" y2="113.9954" gradientTransform="matrix(-1 0 0 1 98 0)" gradientUnits="userSpaceOnUse" class="svga-on-canvas-glasses-gradient-single-1-null"><stop id="SvgjsStop10939" stop-opacity="1" stop-color="#ff73b2" offset="0.004166667" ></stop><stop id="SvgjsStop10940" stop-opacity="0.8296" stop-color="#ff76aa" offset="0.1739" ></stop><stop id="SvgjsStop10941" stop-opacity="0.5716" stop-color="#ff7d96" offset="0.4308" ></stop><stop id="SvgjsStop10942" stop-opacity="0.2598" stop-color="#ff8874" offset="0.7413" ></stop><stop id="SvgjsStop10943" stop-opacity="0" stop-color="#ff9452" offset="1" ></stop></linearGradient><linearGradient id="SvgjsLinearGradient11018" x1="78.9874" y1="84.3909" x2="78.9874" y2="113.9954" gradientUnits="userSpaceOnUse" class="svga-on-canvas-glasses-gradient-single-0-null"><stop id="SvgjsStop11019" stop-opacity="1" stop-color="#ff73b2" offset="0.004166667" ></stop><stop id="SvgjsStop11020" stop-opacity="0.8296" stop-color="#ff76aa" offset="0.1739" ></stop><stop id="SvgjsStop11021" stop-opacity="0.5716" stop-color="#ff7d96" offset="0.4308" ></stop><stop id="SvgjsStop11022" stop-opacity="0.2598" stop-color="#ff8874" offset="0.7413" ></stop><stop id="SvgjsStop11023" stop-opacity="0" stop-color="#ff9452" offset="1" ></stop></linearGradient><linearGradient id="SvgjsLinearGradient11025" x1="-23.0126" y1="84.3909" x2="-23.0126" y2="113.9954" gradientTransform="matrix(-1 0 0 1 98 0)" gradientUnits="userSpaceOnUse" class="svga-on-canvas-glasses-gradient-single-1-null"><stop id="SvgjsStop11026" stop-opacity="1" stop-color="#ff73b2" offset="0.004166667" ></stop><stop id="SvgjsStop11027" stop-opacity="0.8296" stop-color="#ff76aa" offset="0.1739" ></stop><stop id="SvgjsStop11028" stop-opacity="0.5716" stop-color="#ff7d96" offset="0.4308" ></stop><stop id="SvgjsStop11029" stop-opacity="0.2598" stop-color="#ff8874" offset="0.7413" ></stop><stop id="SvgjsStop11030" stop-opacity="0" stop-color="#ff9452" offset="1" ></stop></linearGradient></defs></svg>